<svg width="680" height="537" viewBox="0 0 680 537" fill="none" xmlns="http://www.w3.org/2000/svg">
<g clip-path="url(#clip0_1586_642)">
<path d="M860.965 459.637H-58.9136V462.317H860.965V459.637Z" fill="#F6F5F9"/>
<path d="M651.315 215.044H648.639V1136.28H651.315V215.044Z" fill="#F6F5F9"/>
<path d="M157.491 227.247H154.815V1124.03H157.491V227.247Z" fill="#F6F5F9"/>
<path d="M715.114 -70.3203C504.142 -70.3203 332.483 101.591 332.483 312.873C332.483 524.155 504.142 696.067 715.114 696.067C926.086 696.067 1097.74 524.155 1097.74 312.873C1097.74 101.591 926.086 -70.3203 715.114 -70.3203ZM715.114 698.705C502.66 698.705 329.849 525.598 329.849 312.832C329.849 100.066 502.66 -73 715.114 -73C927.568 -73 1100.38 100.107 1100.38 312.873C1100.38 525.639 927.526 698.746 715.114 698.746" fill="#F6F5F9"/>
</g>
<defs>
<clipPath id="clip0_1586_642">
<rect width="1159.3" height="1209.23" fill="white" transform="translate(-58.9136 -73)"/>
</clipPath>
</defs>
</svg>
