<svg width="80" height="80" viewBox="0 0 80 80" fill="none" xmlns="http://www.w3.org/2000/svg">
<g>
<g>
<path fill-rule="evenodd" clip-rule="evenodd" d="M77.2272 47.9921L76.919 44.0736C75.6862 27.2547 65.4715 12.2849 50.2817 4.97618L46.7153 3.25906C40.2872 0.0890032 32.5822 0.661375 26.5943 4.71201L10.3917 15.7192C4.4919 19.8138 1.1017 26.7703 1.63004 33.947L3.08298 53.4957C3.61133 60.6724 7.97016 67.1006 14.4424 70.2266L25.7577 75.6861C30.2046 77.8435 35.0037 78.9002 39.8028 78.9002C46.231 78.9002 52.6152 77.007 58.0307 73.3086L68.4214 66.264C74.4093 62.1253 77.7555 55.1688 77.2272 47.9921ZM27.4749 32.8023C29.8525 32.8023 31.1733 31.2613 31.6136 29.8523L29.7204 29.1479C29.5002 29.8523 28.8838 30.821 27.4749 30.821C26.11 30.821 24.9653 29.8083 24.9653 28.0031C24.9653 26.198 26.11 25.2293 27.4309 25.2293C28.7958 25.2293 29.4122 26.1099 29.5883 26.9024L31.5255 26.198C31.1733 24.745 29.8084 23.248 27.4309 23.248C24.8332 23.248 22.8519 25.2293 22.8519 28.0031C22.8079 30.7769 24.8332 32.8023 27.4749 32.8023ZM35.8404 27.2986L38.1299 26.9464C38.6583 26.8583 38.8344 26.5941 38.7463 26.2859C38.7463 25.5375 38.218 24.9211 37.0292 24.9211C35.8845 24.9211 35.2681 25.6255 35.18 26.5501L33.2427 26.1098C33.4189 24.5248 34.8278 23.1599 37.0292 23.1599C39.803 23.1599 40.8597 24.7009 40.8597 26.5061V31.041C40.8597 31.6726 40.935 32.1284 40.9719 32.3518L40.9719 32.3519L40.9719 32.3519C40.9839 32.4244 40.9918 32.4724 40.9918 32.494H39.0105C39.0105 32.4852 39.007 32.4623 39.0013 32.4256C38.9788 32.2791 38.9224 31.9128 38.9224 31.3492C38.4822 32.0097 37.6016 32.7582 36.1486 32.7582C34.2554 32.7582 33.1107 31.4373 33.1107 30.0284C33.1107 28.3993 34.2994 27.5187 35.8404 27.2986ZM36.5889 31.041C37.8217 31.041 38.8344 30.4687 38.8344 28.7075H38.7903V28.3113L36.4568 28.6635C35.7964 28.7956 35.2681 29.1478 35.2681 29.8963C35.2681 30.4687 35.7524 31.041 36.5889 31.041ZM46.011 30.9971C44.8662 30.9971 44.2498 30.2926 44.1618 29.4561L42.3126 29.9844C42.4446 30.9971 43.4133 32.7142 46.011 32.7142C48.3005 32.7142 49.4012 31.2172 49.4012 29.8523C49.4012 28.5315 48.5206 27.4748 46.8035 27.1226L45.4386 26.8584C44.8662 26.7263 44.514 26.4181 44.514 25.9338C44.514 25.3614 45.0423 24.9211 45.7908 24.9211C46.9796 24.9211 47.3759 25.7577 47.4639 26.286L49.2691 25.7577C49.137 24.8771 48.3005 23.248 45.7908 23.248C43.9416 23.248 42.4887 24.5689 42.4887 26.1539C42.4887 27.3867 43.3252 28.4434 44.9103 28.7957L46.2311 29.1039C46.9356 29.2359 47.2878 29.6322 47.2878 30.1165C47.3759 30.5128 46.8915 30.9971 46.011 30.9971ZM54.2881 25.3175V29.5002C54.2881 30.2927 54.6403 30.6449 55.4769 30.689C55.6777 30.689 55.8972 30.6516 56.0502 30.6255L56.0502 30.6255C56.132 30.6116 56.1947 30.6009 56.2253 30.6009V32.362C56.0933 32.4501 55.697 32.5822 54.9045 32.5822C53.2314 32.5822 52.2187 31.5695 52.2187 29.8964V25.3615H50.5457V23.4683H50.9859C51.9105 23.4683 52.3508 22.8519 52.3508 22.0593V20.6945H54.2881V23.4242H56.1373V25.3175H54.2881ZM16.5999 35.6642V36.897H15.0148V38.7462H16.5999V45.8788H18.7573V38.7462H20.8266V36.897H18.7573V35.7082C18.7573 34.6075 19.5058 34.3433 20.0781 34.3433C20.4744 34.3433 20.7386 34.3873 20.8706 34.4314V32.6262C20.7386 32.5381 20.2983 32.4501 19.7259 32.4501C17.9207 32.4501 16.5999 33.6388 16.5999 35.6642ZM22.8956 45.8787V36.8969H25.0089V38.3498C25.4492 37.3812 26.4179 36.8088 27.6066 36.8088C27.7741 36.8088 27.9239 36.8265 28.0335 36.8395C28.0968 36.847 28.1468 36.8529 28.179 36.8529V39.0103C27.9148 38.9662 27.6947 38.9662 27.4745 38.9662C25.8015 38.9662 25.053 39.9349 25.053 41.608V45.8787H22.8956ZM34.255 36.6328C31.5693 36.6328 29.588 38.6581 29.588 41.3879C29.588 44.1617 31.5693 46.187 34.255 46.187C36.9408 46.187 38.9221 44.1617 38.9221 41.3879C38.9221 38.6141 36.9408 36.6328 34.255 36.6328ZM34.255 44.2498C32.9342 44.2498 31.7454 43.2371 31.7454 41.3879C31.7454 39.5387 32.9342 38.5701 34.255 38.5701C35.5759 38.5701 36.7647 39.5387 36.7647 41.3879C36.7647 43.2811 35.5759 44.2498 34.255 44.2498ZM48.653 45.8788H46.5396H46.4955V40.4193C46.4955 39.3626 46.0112 38.5701 44.7784 38.5701C43.6337 38.5701 42.9292 39.4066 42.9292 40.5514V45.8788H40.8159V36.897H42.8852V38.0417C43.3695 37.1171 44.5143 36.6328 45.5269 36.6328C46.7157 36.6328 47.7284 37.1612 48.2127 38.2178C48.9171 37.0291 49.9738 36.6328 51.1186 36.6328C52.7476 36.6328 54.2886 37.6895 54.2886 40.067V45.8788H52.2193V40.4193C52.2193 39.3626 51.6909 38.5701 50.5022 38.5701C49.4014 38.5701 48.653 39.4506 48.653 40.5514V45.8788ZM27.3866 57.8105C26.0217 57.8105 24.877 56.7978 24.877 54.9926C24.877 53.1875 26.0217 52.2188 27.3426 52.2188C28.7075 52.2188 29.3239 53.0994 29.5 53.8919L31.4372 53.1875C31.085 51.7345 29.7201 50.2375 27.3426 50.2375C24.7449 50.2375 22.7636 52.2188 22.7636 54.9926C22.7636 57.7224 24.7889 59.7918 27.4306 59.7918C29.8082 59.7918 31.129 58.2508 31.5693 56.8418L29.6761 56.1374C29.456 56.7978 28.7955 57.8105 27.3866 57.8105ZM33.4182 48.3003H35.5756V59.4836H33.4182V48.3003ZM45.5266 53.5837C45.5266 51.7785 44.47 50.2375 41.6962 50.2375C39.4947 50.2375 38.0858 51.6024 37.9097 53.1875L39.847 53.6278C39.935 52.7032 40.5514 51.9987 41.6962 51.9987C42.8849 51.9987 43.4133 52.6151 43.4133 53.3636C43.4133 53.6718 43.2812 53.936 42.7528 54.024L40.4634 54.3762C38.9224 54.5964 37.7336 55.477 37.7336 57.106C37.7336 58.5149 38.8783 59.8358 40.7716 59.8358C42.2245 59.8358 43.1051 59.0873 43.5454 58.4269C43.5454 58.9904 43.6017 59.3568 43.6243 59.5033C43.6299 59.5399 43.6334 59.5628 43.6334 59.5716H45.6147C45.6147 59.5501 45.6068 59.5021 45.5948 59.4297L45.5948 59.4296C45.5579 59.2062 45.4826 58.7503 45.4826 58.1187V53.5837H45.5266ZM41.1678 58.0746C40.3313 58.0746 39.847 57.5023 39.847 56.9299C39.847 56.1814 40.3753 55.8292 41.0357 55.6971L43.3692 55.3449V55.7411H43.4133C43.4133 57.5023 42.4006 58.0746 41.1678 58.0746ZM48.8723 50.5017L51.4699 56.1814L53.8915 50.5017H56.137L50.4133 63.1379H48.1238L50.2812 58.4269L46.4507 50.5017H48.8723Z" fill="white"/>
</g>
</g>
</svg>
