<svg width="80" height="80" viewBox="0 0 80 80" fill="none" xmlns="http://www.w3.org/2000/svg">
<g>
<g>
<path fill-rule="evenodd" clip-rule="evenodd" d="M77.2252 47.9912L76.917 44.0726C75.6842 27.2537 65.4696 12.284 50.2797 4.9752L46.7134 3.25809C40.2852 0.0880266 32.5802 0.660399 26.5923 4.71103L10.3898 15.7182C4.48995 19.8128 1.09974 26.7694 1.62809 33.946L3.08103 53.4947C3.60937 60.6714 7.96821 67.0996 14.4404 70.2256L25.7558 75.6852C30.2027 77.8426 35.0018 78.8992 39.8009 78.8992C46.2291 78.8992 52.6132 77.006 58.0287 73.3076L68.4195 66.263C74.4074 62.1243 77.7535 55.1678 77.2252 47.9912ZM27.473 32.8013C29.8505 32.8013 31.1714 31.2603 31.6116 29.8514L29.7184 29.1469C29.4983 29.8514 28.8819 30.82 27.473 30.82C26.1081 30.82 24.9633 29.8073 24.9633 28.0022C24.9633 26.197 26.1081 25.2284 27.4289 25.2284C28.7938 25.2284 29.4102 26.1089 29.5863 26.9014L31.5236 26.197C31.1714 24.744 29.8065 23.2471 27.4289 23.2471C24.8312 23.2471 22.8499 25.2284 22.8499 28.0022C22.8059 30.776 24.8312 32.8013 27.473 32.8013ZM35.8385 27.2976L38.128 26.9454C38.6563 26.8573 38.8324 26.5932 38.7444 26.285C38.7444 25.5365 38.216 24.9201 37.0273 24.9201C35.8825 24.9201 35.2661 25.6245 35.1781 26.5491L33.2408 26.1089C33.4169 24.5238 34.8258 23.1589 37.0273 23.1589C39.8011 23.1589 40.8577 24.6999 40.8577 26.5051V31.0401C40.8577 31.6716 40.933 32.1275 40.9699 32.3509L40.9699 32.3509L40.9699 32.351C40.9819 32.4234 40.9898 32.4714 40.9898 32.493H39.0085C39.0085 32.4842 39.005 32.4613 38.9994 32.4247C38.9768 32.2781 38.9205 31.9118 38.9205 31.3483C38.4802 32.0087 37.5996 32.7572 36.1467 32.7572C34.2534 32.7572 33.1087 31.4363 33.1087 30.0274C33.1087 28.3983 34.2975 27.5178 35.8385 27.2976ZM36.587 31.0401C37.8198 31.0401 38.8324 30.4677 38.8324 28.7065H38.7884V28.3103L36.4549 28.6625C35.7945 28.7946 35.2661 29.1468 35.2661 29.8953C35.2661 30.4677 35.7504 31.0401 36.587 31.0401ZM46.009 30.9961C44.8643 30.9961 44.2479 30.2917 44.1598 29.4551L42.3106 29.9834C42.4427 30.9961 43.4113 32.7132 46.009 32.7132C48.2985 32.7132 49.3992 31.2163 49.3992 29.8514C49.3992 28.5305 48.5186 27.4738 46.8015 27.1216L45.4366 26.8574C44.8643 26.7253 44.512 26.4171 44.512 25.9328C44.512 25.3604 45.0404 24.9202 45.7889 24.9202C46.9776 24.9202 47.3739 25.7567 47.462 26.285L49.2671 25.7567C49.135 24.8761 48.2985 23.2471 45.7889 23.2471C43.9397 23.2471 42.4867 24.5679 42.4867 26.153C42.4867 27.3858 43.3233 28.4424 44.9083 28.7947L46.2292 29.1029C46.9336 29.235 47.2858 29.6312 47.2858 30.1155C47.3739 30.5118 46.8896 30.9961 46.009 30.9961ZM54.2861 25.3165V29.4992C54.2861 30.2917 54.6384 30.6439 55.4749 30.688C55.6757 30.688 55.8953 30.6506 56.0482 30.6245L56.0483 30.6245C56.13 30.6106 56.1927 30.5999 56.2234 30.5999V32.3611C56.0913 32.4491 55.695 32.5812 54.9025 32.5812C53.2294 32.5812 52.2168 31.5686 52.2168 29.8955V25.3605H50.5437V23.4673H50.984C51.9086 23.4673 52.3489 22.8509 52.3489 22.0584V20.6935H54.2861V23.4233H56.1353V25.3165H54.2861ZM16.5979 35.6632V36.896H15.0129V38.7452H16.5979V45.8778H18.7553V38.7452H20.8247V36.896H18.7553V35.7072C18.7553 34.6065 19.5038 34.3423 20.0762 34.3423C20.4724 34.3423 20.7366 34.3864 20.8687 34.4304V32.6252C20.7366 32.5372 20.2963 32.4491 19.7239 32.4491C17.9188 32.4491 16.5979 33.6379 16.5979 35.6632ZM22.8936 45.8778V36.8959H25.007V38.3489C25.4473 37.3802 26.4159 36.8079 27.6047 36.8079C27.7722 36.8079 27.9219 36.8256 28.0316 36.8385C28.0949 36.846 28.1448 36.8519 28.177 36.8519V39.0093C27.9129 38.9653 27.6927 38.9653 27.4726 38.9653C25.7995 38.9653 25.051 39.9339 25.051 41.607V45.8778H22.8936ZM34.2531 36.6318C31.5674 36.6318 29.5861 38.6572 29.5861 41.3869C29.5861 44.1607 31.5674 46.1861 34.2531 46.1861C36.9388 46.1861 38.9201 44.1607 38.9201 41.3869C38.9201 38.6131 36.9388 36.6318 34.2531 36.6318ZM34.2531 44.2488C32.9322 44.2488 31.7435 43.2361 31.7435 41.3869C31.7435 39.5377 32.9322 38.5691 34.2531 38.5691C35.574 38.5691 36.7627 39.5377 36.7627 41.3869C36.7627 43.2802 35.574 44.2488 34.2531 44.2488ZM48.651 45.8778H46.5376H46.4936V40.4183C46.4936 39.3616 46.0093 38.5691 44.7765 38.5691C43.6317 38.5691 42.9273 39.4056 42.9273 40.5504V45.8778H40.8139V36.896H42.8833V38.0408C43.3676 37.1162 44.5123 36.6318 45.525 36.6318C46.7137 36.6318 47.7264 37.1602 48.2107 38.2169C48.9152 37.0281 49.9719 36.6318 51.1166 36.6318C52.7457 36.6318 54.2867 37.6885 54.2867 40.0661V45.8778H52.2173V40.4183C52.2173 39.3616 51.689 38.5691 50.5002 38.5691C49.3995 38.5691 48.651 39.4497 48.651 40.5504V45.8778ZM27.3847 57.8095C26.0198 57.8095 24.875 56.7968 24.875 54.9917C24.875 53.1865 26.0198 52.2179 27.3406 52.2179C28.7055 52.2179 29.3219 53.0984 29.498 53.8909L31.4353 53.1865C31.0831 51.7335 29.7182 50.2366 27.3406 50.2366C24.7429 50.2366 22.7617 52.2179 22.7617 54.9917C22.7617 57.7214 24.787 59.7908 27.4287 59.7908C29.8062 59.7908 31.1271 58.2498 31.5674 56.8409L29.6742 56.1364C29.454 56.7968 28.7936 57.8095 27.3847 57.8095ZM33.4163 48.2993H35.5737V59.4826H33.4163V48.2993ZM45.5247 53.5827C45.5247 51.7776 44.468 50.2366 41.6942 50.2366C39.4928 50.2366 38.0839 51.6015 37.9077 53.1865L39.845 53.6268C39.9331 52.7022 40.5495 51.9977 41.6942 51.9977C42.883 51.9977 43.4113 52.6141 43.4113 53.3626C43.4113 53.6708 43.2792 53.935 42.7509 54.023L40.4614 54.3753C38.9204 54.5954 37.7316 55.476 37.7316 57.105C37.7316 58.514 38.8764 59.8348 40.7696 59.8348C42.2225 59.8348 43.1031 59.0863 43.5434 58.4259C43.5434 58.9895 43.5998 59.3558 43.6223 59.5023C43.6279 59.5389 43.6315 59.5618 43.6315 59.5706H45.6128C45.6128 59.5491 45.6048 59.5011 45.5929 59.4287L45.5929 59.4286C45.556 59.2052 45.4807 58.7493 45.4807 58.1177V53.5827H45.5247ZM41.1659 58.0737C40.3293 58.0737 39.845 57.5013 39.845 56.9289C39.845 56.1804 40.3733 55.8282 41.0338 55.6961L43.3673 55.3439V55.7402H43.4113C43.4113 57.5013 42.3987 58.0737 41.1659 58.0737ZM48.8703 50.5007L51.468 56.1804L53.8896 50.5007H56.135L50.4113 63.1369H48.1218L50.2792 58.4259L46.4487 50.5007H48.8703Z" fill="#0F0801"/>
</g>
</g>
</svg>
